<svg height="8.5in" viewBox="-0.21176470588235297 -1.05 1.423529411764706 1.1" width="11in" xmlns="http://www.w3.org/2000/svg" xmlns:inkscape="http://www.inkscape.org/namespaces/inkscape"><g inkscape:groupmode="layer" inkscape:label="0-layer"><path d="M 0.0 -0.0 L 0.02040816326530612 -0.0 L 0.04081632653061224 -0.0 L 0.061224489795918366 -0.0 L 0.08163265306122448 -0.0 L 0.1020408163265306 -0.0 L 0.12244897959183673 -0.0 L 0.14285714285714285 -0.0 L 0.16326530612244897 -0.0 L 0.18367346938775508 -0.0 L 0.2040816326530612 -0.0 L 0.22448979591836732 -0.0 L 0.24489795918367346 -0.0 L 0.26530612244897955 -0.0 L 0.2857142857142857 -0.0 L 0.3061224489795918 -0.0 L 0.32653061224489793 -0.0 L 0.3469387755102041 -0.0 L 0.36734693877551017 -0.0 L 0.3877551020408163 -0.0 L 0.4081632653061224 -0.0 L 0.42857142857142855 -0.0 L 0.44897959183673464 -0.0 L 0.4693877551020408 -0.0 L 0.4897959183673469 -0.0 L 0.5102040816326531 -0.0 L 0.5306122448979591 -0.0 L 0.5510204081632653 -0.0 L 0.5714285714285714 -0.0 L 0.5918367346938775 -0.0 L 0.6122448979591836 -0.0 L 0.6326530612244897 -0.0 L 0.6530612244897959 -0.0 L 0.673469387755102 -0.0 L 0.6938775510204082 -0.0 L 0.7142857142857142 -0.0 L 0.7346938775510203 -0.0 L 0.7551020408163265 -0.0 L 0.7755102040816326 -0.0 L 0.7959183673469387 -0.0 L 0.8163265306122448 -0.0 L 0.836734693877551 -0.0 L 0.8571428571428571 -0.0 L 0.8775510204081632 -0.0 L 0.8979591836734693 -0.0 L 0.9183673469387754 -0.0 L 0.9387755102040816 -0.0 L 0.9591836734693877 -0.0 L 0.9795918367346939 -0.0 L 1.0 -0.0 M 0.0 -0.25 L 0.02040816326530612 -0.25 L 0.04081632653061224 -0.25 L 0.061224489795918366 -0.25 L 0.08163265306122448 -0.25 L 0.1020408163265306 -0.25 L 0.12244897959183673 -0.25 L 0.14285714285714285 -0.25 L 0.16326530612244897 -0.25 L 0.18367346938775508 -0.25 L 0.2040816326530612 -0.25 L 0.22448979591836732 -0.25 L 0.24489795918367346 -0.25 L 0.26530612244897955 -0.25 L 0.2857142857142857 -0.25 L 0.3061224489795918 -0.25 L 0.32653061224489793 -0.25 L 0.3469387755102041 -0.25 L 0.36734693877551017 -0.25 L 0.3877551020408163 -0.25 L 0.4081632653061224 -0.25 L 0.42857142857142855 -0.25 L 0.44897959183673464 -0.25 L 0.4693877551020408 -0.25 L 0.4897959183673469 -0.25 L 0.5102040816326531 -0.25 L 0.5306122448979591 -0.25 L 0.5510204081632653 -0.25 L 0.5714285714285714 -0.25 L 0.5918367346938775 -0.25 L 0.6122448979591836 -0.25 L 0.6326530612244897 -0.25 L 0.6530612244897959 -0.25 L 0.673469387755102 -0.25 L 0.6938775510204082 -0.25 L 0.7142857142857142 -0.25 L 0.7346938775510203 -0.25 L 0.7551020408163265 -0.25 L 0.7755102040816326 -0.25 L 0.7959183673469387 -0.25 L 0.8163265306122448 -0.25 L 0.836734693877551 -0.25 L 0.8571428571428571 -0.25 L 0.8775510204081632 -0.25 L 0.8979591836734693 -0.25 L 0.9183673469387754 -0.25 L 0.9387755102040816 -0.25 L 0.9591836734693877 -0.25 L 0.9795918367346939 -0.25 L 1.0 -0.25 M 0.0 -0.5 L 0.02040816326530612 -0.5 L 0.04081632653061224 -0.5 L 0.061224489795918366 -0.5 L 0.08163265306122448 -0.5 L 0.1020408163265306 -0.5 L 0.12244897959183673 -0.5 L 0.14285714285714285 -0.5 L 0.16326530612244897 -0.5 L 0.18367346938775508 -0.5 L 0.2040816326530612 -0.5 L 0.22448979591836732 -0.5 L 0.24489795918367346 -0.5 L 0.26530612244897955 -0.5 L 0.2857142857142857 -0.5 L 0.3061224489795918 -0.5 L 0.32653061224489793 -0.5 L 0.3469387755102041 -0.5 L 0.36734693877551017 -0.5 L 0.3877551020408163 -0.5 L 0.4081632653061224 -0.5 L 0.42857142857142855 -0.5 L 0.44897959183673464 -0.5 L 0.4693877551020408 -0.5 L 0.4897959183673469 -0.5 L 0.5102040816326531 -0.5 L 0.5306122448979591 -0.5 L 0.5510204081632653 -0.5 L 0.5714285714285714 -0.5 L 0.5918367346938775 -0.5 L 0.6122448979591836 -0.5 L 0.6326530612244897 -0.5 L 0.6530612244897959 -0.5 L 0.673469387755102 -0.5 L 0.6938775510204082 -0.5 L 0.7142857142857142 -0.5 L 0.7346938775510203 -0.5 L 0.7551020408163265 -0.5 L 0.7755102040816326 -0.5 L 0.7959183673469387 -0.5 L 0.8163265306122448 -0.5 L 0.836734693877551 -0.5 L 0.8571428571428571 -0.5 L 0.8775510204081632 -0.5 L 0.8979591836734693 -0.5 L 0.9183673469387754 -0.5 L 0.9387755102040816 -0.5 L 0.9591836734693877 -0.5 L 0.9795918367346939 -0.5 L 1.0 -0.5 M 0.0 -0.75 L 0.02040816326530612 -0.75 L 0.04081632653061224 -0.75 L 0.061224489795918366 -0.75 L 0.08163265306122448 -0.75 L 0.1020408163265306 -0.75 L 0.12244897959183673 -0.75 L 0.14285714285714285 -0.75 L 0.16326530612244897 -0.75 L 0.18367346938775508 -0.75 L 0.2040816326530612 -0.75 L 0.22448979591836732 -0.75 L 0.24489795918367346 -0.75 L 0.26530612244897955 -0.75 L 0.2857142857142857 -0.75 L 0.3061224489795918 -0.75 L 0.32653061224489793 -0.75 L 0.3469387755102041 -0.75 L 0.36734693877551017 -0.75 L 0.3877551020408163 -0.75 L 0.4081632653061224 -0.75 L 0.42857142857142855 -0.75 L 0.44897959183673464 -0.75 L 0.4693877551020408 -0.75 L 0.4897959183673469 -0.75 L 0.5102040816326531 -0.75 L 0.5306122448979591 -0.75 L 0.5510204081632653 -0.75 L 0.5714285714285714 -0.75 L 0.5918367346938775 -0.75 L 0.6122448979591836 -0.75 L 0.6326530612244897 -0.75 L 0.6530612244897959 -0.75 L 0.673469387755102 -0.75 L 0.6938775510204082 -0.75 L 0.7142857142857142 -0.75 L 0.7346938775510203 -0.75 L 0.7551020408163265 -0.75 L 0.7755102040816326 -0.75 L 0.7959183673469387 -0.75 L 0.8163265306122448 -0.75 L 0.836734693877551 -0.75 L 0.8571428571428571 -0.75 L 0.8775510204081632 -0.75 L 0.8979591836734693 -0.75 L 0.9183673469387754 -0.75 L 0.9387755102040816 -0.75 L 0.9591836734693877 -0.75 L 0.9795918367346939 -0.75 L 1.0 -0.75 M 0.0 -1.0 L 0.02040816326530612 -1.0 L 0.04081632653061224 -1.0 L 0.061224489795918366 -1.0 L 0.08163265306122448 -1.0 L 0.1020408163265306 -1.0 L 0.12244897959183673 -1.0 L 0.14285714285714285 -1.0 L 0.16326530612244897 -1.0 L 0.18367346938775508 -1.0 L 0.2040816326530612 -1.0 L 0.22448979591836732 -1.0 L 0.24489795918367346 -1.0 L 0.26530612244897955 -1.0 L 0.2857142857142857 -1.0 L 0.3061224489795918 -1.0 L 0.32653061224489793 -1.0 L 0.3469387755102041 -1.0 L 0.36734693877551017 -1.0 L 0.3877551020408163 -1.0 L 0.4081632653061224 -1.0 L 0.42857142857142855 -1.0 L 0.44897959183673464 -1.0 L 0.4693877551020408 -1.0 L 0.4897959183673469 -1.0 L 0.5102040816326531 -1.0 L 0.5306122448979591 -1.0 L 0.5510204081632653 -1.0 L 0.5714285714285714 -1.0 L 0.5918367346938775 -1.0 L 0.6122448979591836 -1.0 L 0.6326530612244897 -1.0 L 0.6530612244897959 -1.0 L 0.673469387755102 -1.0 L 0.6938775510204082 -1.0 L 0.7142857142857142 -1.0 L 0.7346938775510203 -1.0 L 0.7551020408163265 -1.0 L 0.7755102040816326 -1.0 L 0.7959183673469387 -1.0 L 0.8163265306122448 -1.0 L 0.836734693877551 -1.0 L 0.8571428571428571 -1.0 L 0.8775510204081632 -1.0 L 0.8979591836734693 -1.0 L 0.9183673469387754 -1.0 L 0.9387755102040816 -1.0 L 0.9591836734693877 -1.0 L 0.9795918367346939 -1.0 L 1.0 -1.0 M 0.0 -0.0 L 0.0 -0.02040816326530612 L 0.0 -0.04081632653061224 L 0.0 -0.061224489795918366 L 0.0 -0.08163265306122448 L 0.0 -0.1020408163265306 L 0.0 -0.12244897959183673 L 0.0 -0.14285714285714285 L 0.0 -0.16326530612244897 L 0.0 -0.18367346938775508 L 0.0 -0.2040816326530612 L 0.0 -0.22448979591836732 L 0.0 -0.24489795918367346 L 0.0 -0.26530612244897955 L 0.0 -0.2857142857142857 L 0.0 -0.3061224489795918 L 0.0 -0.32653061224489793 L 0.0 -0.3469387755102041 L 0.0 -0.36734693877551017 L 0.0 -0.3877551020408163 L 0.0 -0.4081632653061224 L 0.0 -0.42857142857142855 L 0.0 -0.44897959183673464 L 0.0 -0.4693877551020408 L 0.0 -0.4897959183673469 L 0.0 -0.5102040816326531 L 0.0 -0.5306122448979591 L 0.0 -0.5510204081632653 L 0.0 -0.5714285714285714 L 0.0 -0.5918367346938775 L 0.0 -0.6122448979591836 L 0.0 -0.6326530612244897 L 0.0 -0.6530612244897959 L 0.0 -0.673469387755102 L 0.0 -0.6938775510204082 L 0.0 -0.7142857142857142 L 0.0 -0.7346938775510203 L 0.0 -0.7551020408163265 L 0.0 -0.7755102040816326 L 0.0 -0.7959183673469387 L 0.0 -0.8163265306122448 L 0.0 -0.836734693877551 L 0.0 -0.8571428571428571 L 0.0 -0.8775510204081632 L 0.0 -0.8979591836734693 L 0.0 -0.9183673469387754 L 0.0 -0.9387755102040816 L 0.0 -0.9591836734693877 L 0.0 -0.9795918367346939 L 0.0 -1.0 M 0.25 -0.0 L 0.25 -0.02040816326530612 L 0.25 -0.04081632653061224 L 0.25 -0.061224489795918366 L 0.25 -0.08163265306122448 L 0.25 -0.1020408163265306 L 0.25 -0.12244897959183673 L 0.25 -0.14285714285714285 L 0.25 -0.16326530612244897 L 0.25 -0.18367346938775508 L 0.25 -0.2040816326530612 L 0.25 -0.22448979591836732 L 0.25 -0.24489795918367346 L 0.25 -0.26530612244897955 L 0.25 -0.2857142857142857 L 0.25 -0.3061224489795918 L 0.25 -0.32653061224489793 L 0.25 -0.3469387755102041 L 0.25 -0.36734693877551017 L 0.25 -0.3877551020408163 L 0.25 -0.4081632653061224 L 0.25 -0.42857142857142855 L 0.25 -0.44897959183673464 L 0.25 -0.4693877551020408 L 0.25 -0.4897959183673469 L 0.25 -0.5102040816326531 L 0.25 -0.5306122448979591 L 0.25 -0.5510204081632653 L 0.25 -0.5714285714285714 L 0.25 -0.5918367346938775 L 0.25 -0.6122448979591836 L 0.25 -0.6326530612244897 L 0.25 -0.6530612244897959 L 0.25 -0.673469387755102 L 0.25 -0.6938775510204082 L 0.25 -0.7142857142857142 L 0.25 -0.7346938775510203 L 0.25 -0.7551020408163265 L 0.25 -0.7755102040816326 L 0.25 -0.7959183673469387 L 0.25 -0.8163265306122448 L 0.25 -0.836734693877551 L 0.25 -0.8571428571428571 L 0.25 -0.8775510204081632 L 0.25 -0.8979591836734693 L 0.25 -0.9183673469387754 L 0.25 -0.9387755102040816 L 0.25 -0.9591836734693877 L 0.25 -0.9795918367346939 L 0.25 -1.0 M 0.5 -0.0 L 0.5 -0.02040816326530612 L 0.5 -0.04081632653061224 L 0.5 -0.061224489795918366 L 0.5 -0.08163265306122448 L 0.5 -0.1020408163265306 L 0.5 -0.12244897959183673 L 0.5 -0.14285714285714285 L 0.5 -0.16326530612244897 L 0.5 -0.18367346938775508 L 0.5 -0.2040816326530612 L 0.5 -0.22448979591836732 L 0.5 -0.24489795918367346 L 0.5 -0.26530612244897955 L 0.5 -0.2857142857142857 L 0.5 -0.3061224489795918 L 0.5 -0.32653061224489793 L 0.5 -0.3469387755102041 L 0.5 -0.36734693877551017 L 0.5 -0.3877551020408163 L 0.5 -0.4081632653061224 L 0.5 -0.42857142857142855 L 0.5 -0.44897959183673464 L 0.5 -0.4693877551020408 L 0.5 -0.4897959183673469 L 0.5 -0.5102040816326531 L 0.5 -0.5306122448979591 L 0.5 -0.5510204081632653 L 0.5 -0.5714285714285714 L 0.5 -0.5918367346938775 L 0.5 -0.6122448979591836 L 0.5 -0.6326530612244897 L 0.5 -0.6530612244897959 L 0.5 -0.673469387755102 L 0.5 -0.6938775510204082 L 0.5 -0.7142857142857142 L 0.5 -0.7346938775510203 L 0.5 -0.7551020408163265 L 0.5 -0.7755102040816326 L 0.5 -0.7959183673469387 L 0.5 -0.8163265306122448 L 0.5 -0.836734693877551 L 0.5 -0.8571428571428571 L 0.5 -0.8775510204081632 L 0.5 -0.8979591836734693 L 0.5 -0.9183673469387754 L 0.5 -0.9387755102040816 L 0.5 -0.9591836734693877 L 0.5 -0.9795918367346939 L 0.5 -1.0 M 0.75 -0.0 L 0.75 -0.02040816326530612 L 0.75 -0.04081632653061224 L 0.75 -0.061224489795918366 L 0.75 -0.08163265306122448 L 0.75 -0.1020408163265306 L 0.75 -0.12244897959183673 L 0.75 -0.14285714285714285 L 0.75 -0.16326530612244897 L 0.75 -0.18367346938775508 L 0.75 -0.2040816326530612 L 0.75 -0.22448979591836732 L 0.75 -0.24489795918367346 L 0.75 -0.26530612244897955 L 0.75 -0.2857142857142857 L 0.75 -0.3061224489795918 L 0.75 -0.32653061224489793 L 0.75 -0.3469387755102041 L 0.75 -0.36734693877551017 L 0.75 -0.3877551020408163 L 0.75 -0.4081632653061224 L 0.75 -0.42857142857142855 L 0.75 -0.44897959183673464 L 0.75 -0.4693877551020408 L 0.75 -0.4897959183673469 L 0.75 -0.5102040816326531 L 0.75 -0.5306122448979591 L 0.75 -0.5510204081632653 L 0.75 -0.5714285714285714 L 0.75 -0.5918367346938775 L 0.75 -0.6122448979591836 L 0.75 -0.6326530612244897 L 0.75 -0.6530612244897959 L 0.75 -0.673469387755102 L 0.75 -0.6938775510204082 L 0.75 -0.7142857142857142 L 0.75 -0.7346938775510203 L 0.75 -0.7551020408163265 L 0.75 -0.7755102040816326 L 0.75 -0.7959183673469387 L 0.75 -0.8163265306122448 L 0.75 -0.836734693877551 L 0.75 -0.8571428571428571 L 0.75 -0.8775510204081632 L 0.75 -0.8979591836734693 L 0.75 -0.9183673469387754 L 0.75 -0.9387755102040816 L 0.75 -0.9591836734693877 L 0.75 -0.9795918367346939 L 0.75 -1.0 M 1.0 -0.0 L 1.0 -0.02040816326530612 L 1.0 -0.04081632653061224 L 1.0 -0.061224489795918366 L 1.0 -0.08163265306122448 L 1.0 -0.1020408163265306 L 1.0 -0.12244897959183673 L 1.0 -0.14285714285714285 L 1.0 -0.16326530612244897 L 1.0 -0.18367346938775508 L 1.0 -0.2040816326530612 L 1.0 -0.22448979591836732 L 1.0 -0.24489795918367346 L 1.0 -0.26530612244897955 L 1.0 -0.2857142857142857 L 1.0 -0.3061224489795918 L 1.0 -0.32653061224489793 L 1.0 -0.3469387755102041 L 1.0 -0.36734693877551017 L 1.0 -0.3877551020408163 L 1.0 -0.4081632653061224 L 1.0 -0.42857142857142855 L 1.0 -0.44897959183673464 L 1.0 -0.4693877551020408 L 1.0 -0.4897959183673469 L 1.0 -0.5102040816326531 L 1.0 -0.5306122448979591 L 1.0 -0.5510204081632653 L 1.0 -0.5714285714285714 L 1.0 -0.5918367346938775 L 1.0 -0.6122448979591836 L 1.0 -0.6326530612244897 L 1.0 -0.6530612244897959 L 1.0 -0.673469387755102 L 1.0 -0.6938775510204082 L 1.0 -0.7142857142857142 L 1.0 -0.7346938775510203 L 1.0 -0.7551020408163265 L 1.0 -0.7755102040816326 L 1.0 -0.7959183673469387 L 1.0 -0.8163265306122448 L 1.0 -0.836734693877551 L 1.0 -0.8571428571428571 L 1.0 -0.8775510204081632 L 1.0 -0.8979591836734693 L 1.0 -0.9183673469387754 L 1.0 -0.9387755102040816 L 1.0 -0.9591836734693877 L 1.0 -0.9795918367346939 L 1.0 -1.0" fill="none" style="stroke-width: 0.004270588235294118; stroke: black;" /></g></svg>