<?xml version="1.0" encoding="UTF-8" standalone="no"?>
<!-- Created with Inkscape (http://www.inkscape.org/) -->

<svg
   xmlns:dc="http://purl.org/dc/elements/1.1/"
   xmlns:cc="http://creativecommons.org/ns#"
   xmlns:rdf="http://www.w3.org/1999/02/22-rdf-syntax-ns#"
   xmlns:svg="http://www.w3.org/2000/svg"
   xmlns="http://www.w3.org/2000/svg"
   xmlns:sodipodi="http://sodipodi.sourceforge.net/DTD/sodipodi-0.dtd"
   xmlns:inkscape="http://www.inkscape.org/namespaces/inkscape"
   width="215.89999mm"
   height="279.39999mm"
   viewBox="0 0 8.4999832 10.999978"
   version="1.1"
   id="svg8"
   sodipodi:docname="grid-i.svg"
   inkscape:version="0.92.3 (2405546, 2018-03-11)">
  <defs
     id="defs2" />
  <sodipodi:namedview
     id="base"
     pagecolor="#ffffff"
     bordercolor="#666666"
     borderopacity="1.0"
     inkscape:pageopacity="0.0"
     inkscape:pageshadow="2"
     inkscape:zoom="0.41095404"
     inkscape:cx="501.41861"
     inkscape:cy="1054.5391"
     inkscape:document-units="mm"
     inkscape:current-layer="layer1"
     showgrid="false"
     inkscape:window-width="1366"
     inkscape:window-height="713"
     inkscape:window-x="0"
     inkscape:window-y="27"
     inkscape:window-maximized="1"
     units="mm"
     width="7.5in"
     objecttolerance="16">
    <inkscape:grid
       type="xygrid"
       id="grid821" />
  </sodipodi:namedview>
  <metadata
     id="metadata5">
    <rdf:RDF>
      <cc:Work
         rdf:about="">
        <dc:format>image/svg+xml</dc:format>
        <dc:type
           rdf:resource="http://purl.org/dc/dcmitype/StillImage" />
        <dc:title></dc:title>
      </cc:Work>
    </rdf:RDF>
  </metadata>
  <g
     inkscape:label="Layer 1"
     inkscape:groupmode="layer"
     id="layer1"
     style="opacity:0.95000001">
    <path
       style="fill:#0000ff;fill-opacity:0.99607843;stroke:none;stroke-width:0.39370018;stroke-linejoin:round;stroke-miterlimit:4;stroke-dasharray:none;stroke-opacity:1"
       id="path819"
       r="13.406666"
       cy="0"
       cx="0" />
    <path
       style="fill:#ff0000;fill-opacity:0.99607843;stroke:none;stroke-width:0.39370018;stroke-linejoin:round;stroke-miterlimit:4;stroke-dasharray:none;stroke-opacity:1"
       id="path823"
       r="3.937"
       cy="0"
       cx="0" />
    <rect
       style="fill:#ff00ff;fill-opacity:0.99607843;stroke:none;stroke-width:0.39370018;stroke-linejoin:round;stroke-miterlimit:4;stroke-dasharray:none;stroke-opacity:1"
       id="rect825"
       width="7.0866003"
       height="4.40944"
       x="-5.9767313"
       y="-2.2804003" />
    <rect
       style="fill:#ffffff;fill-opacity:0.99607843;stroke:#000000;stroke-width:0.03937;stroke-linejoin:round;stroke-miterlimit:4;stroke-dasharray:none;stroke-opacity:1"
       id="rect859"
       width="8.4999838"
       height="9.2283278"
       x="4.547235"
       y="-4.6339998" />
    <g
       id="g932"
       inkscape:label="0-layer"
       transform="matrix(4.4320861,0,0,4.4320861,6.5795297,2.316608)"
       style="stroke-width:1.74348092">
      <path
         id="path930"
         style="fill:none;stroke:#000000;stroke-width:0.00744569"
         d="m 0,0 h 0.02040816 0.02040817 0.02040816 0.02040816 0.02040817 0.0204082 0.0204082 0.0204082 0.0204082 0.0204082 0.0204082 0.0204082 0.0204082 0.0204082 0.0204082 0.0204082 0.0204082 0.0204082 0.0204082 0.0204082 0.0204082 0.0204082 0.0204082 0.0204082 0.0204082 0.0204082 0.0204082 0.0204082 0.0204082 0.0204082 0.0204082 0.0204082 0.0204082 0.0204082 0.0204082 0.0204082 0.0204082 0.0204082 0.0204082 0.0204082 0.0204082 0.0204082 0.0204082 0.0204082 0.0204082 0.0204082 0.0204082 0.0204082 H 1 M 0,-0.25 h 0.02040816 0.02040817 0.02040816 0.02040816 0.02040817 0.0204082 0.0204082 0.0204082 0.0204082 0.0204082 0.0204082 0.0204082 0.0204082 0.0204082 0.0204082 0.0204082 0.0204082 0.0204082 0.0204082 0.0204082 0.0204082 0.0204082 0.0204082 0.0204082 0.0204082 0.0204082 0.0204082 0.0204082 0.0204082 0.0204082 0.0204082 0.0204082 0.0204082 0.0204082 0.0204082 0.0204082 0.0204082 0.0204082 0.0204082 0.0204082 0.0204082 0.0204082 0.0204082 0.0204082 0.0204082 0.0204082 0.0204082 0.0204082 H 1 M 0,-0.5 h 0.02040816 0.02040817 0.02040816 0.02040816 0.02040817 0.0204082 0.0204082 0.0204082 0.0204082 0.0204082 0.0204082 0.0204082 0.0204082 0.0204082 0.0204082 0.0204082 0.0204082 0.0204082 0.0204082 0.0204082 0.0204082 0.0204082 0.0204082 0.0204082 0.0204082 0.0204082 0.0204082 0.0204082 0.0204082 0.0204082 0.0204082 0.0204082 0.0204082 0.0204082 0.0204082 0.0204082 0.0204082 0.0204082 0.0204082 0.0204082 0.0204082 0.0204082 0.0204082 0.0204082 0.0204082 0.0204082 0.0204082 0.0204082 H 1 M 0,-0.75 h 0.02040816 0.02040817 0.02040816 0.02040816 0.02040817 0.0204082 0.0204082 0.0204082 0.0204082 0.0204082 0.0204082 0.0204082 0.0204082 0.0204082 0.0204082 0.0204082 0.0204082 0.0204082 0.0204082 0.0204082 0.0204082 0.0204082 0.0204082 0.0204082 0.0204082 0.0204082 0.0204082 0.0204082 0.0204082 0.0204082 0.0204082 0.0204082 0.0204082 0.0204082 0.0204082 0.0204082 0.0204082 0.0204082 0.0204082 0.0204082 0.0204082 0.0204082 0.0204082 0.0204082 0.0204082 0.0204082 0.0204082 0.0204082 H 1 M 0,-1 h 0.02040816 0.02040817 0.02040816 0.02040816 0.02040817 0.0204082 0.0204082 0.0204082 0.0204082 0.0204082 0.0204082 0.0204082 0.0204082 0.0204082 0.0204082 0.0204082 0.0204082 0.0204082 0.0204082 0.0204082 0.0204082 0.0204082 0.0204082 0.0204082 0.0204082 0.0204082 0.0204082 0.0204082 0.0204082 0.0204082 0.0204082 0.0204082 0.0204082 0.0204082 0.0204082 0.0204082 0.0204082 0.0204082 0.0204082 0.0204082 0.0204082 0.0204082 0.0204082 0.0204082 0.0204082 0.0204082 0.0204082 0.0204082 H 1 M 0,0 v -0.02040816 -0.02040817 -0.02040816 -0.02040816 -0.02040817 -0.0204082 -0.0204082 -0.0204082 -0.0204082 -0.0204082 -0.0204082 -0.0204082 -0.0204082 -0.0204082 -0.0204082 -0.0204082 -0.0204082 -0.0204082 -0.0204082 -0.0204082 -0.0204082 -0.0204082 -0.0204082 -0.0204082 -0.0204082 -0.0204082 -0.0204082 -0.0204082 -0.0204082 -0.0204082 -0.0204082 -0.0204082 -0.0204082 -0.0204082 -0.0204082 -0.0204082 -0.0204082 -0.0204082 -0.0204082 -0.0204082 -0.0204082 -0.0204082 -0.0204082 -0.0204082 -0.0204082 -0.0204082 -0.0204082 -0.0204082 V -1 m 0.25,1 v -0.02040816 -0.02040817 -0.02040816 -0.02040816 -0.02040817 -0.0204082 -0.0204082 -0.0204082 -0.0204082 -0.0204082 -0.0204082 -0.0204082 -0.0204082 -0.0204082 -0.0204082 -0.0204082 -0.0204082 -0.0204082 -0.0204082 -0.0204082 -0.0204082 -0.0204082 -0.0204082 -0.0204082 -0.0204082 -0.0204082 -0.0204082 -0.0204082 -0.0204082 -0.0204082 -0.0204082 -0.0204082 -0.0204082 -0.0204082 -0.0204082 -0.0204082 -0.0204082 -0.0204082 -0.0204082 -0.0204082 -0.0204082 -0.0204082 -0.0204082 -0.0204082 -0.0204082 -0.0204082 -0.0204082 -0.0204082 V -1 M 0.5,0 v -0.02040816 -0.02040817 -0.02040816 -0.02040816 -0.02040817 -0.0204082 -0.0204082 -0.0204082 -0.0204082 -0.0204082 -0.0204082 -0.0204082 -0.0204082 -0.0204082 -0.0204082 -0.0204082 -0.0204082 -0.0204082 -0.0204082 -0.0204082 -0.0204082 -0.0204082 -0.0204082 -0.0204082 -0.0204082 -0.0204082 -0.0204082 -0.0204082 -0.0204082 -0.0204082 -0.0204082 -0.0204082 -0.0204082 -0.0204082 -0.0204082 -0.0204082 -0.0204082 -0.0204082 -0.0204082 -0.0204082 -0.0204082 -0.0204082 -0.0204082 -0.0204082 -0.0204082 -0.0204082 -0.0204082 -0.0204082 V -1 m 0.25,1 v -0.02040816 -0.02040817 -0.02040816 -0.02040816 -0.02040817 -0.0204082 -0.0204082 -0.0204082 -0.0204082 -0.0204082 -0.0204082 -0.0204082 -0.0204082 -0.0204082 -0.0204082 -0.0204082 -0.0204082 -0.0204082 -0.0204082 -0.0204082 -0.0204082 -0.0204082 -0.0204082 -0.0204082 -0.0204082 -0.0204082 -0.0204082 -0.0204082 -0.0204082 -0.0204082 -0.0204082 -0.0204082 -0.0204082 -0.0204082 -0.0204082 -0.0204082 -0.0204082 -0.0204082 -0.0204082 -0.0204082 -0.0204082 -0.0204082 -0.0204082 -0.0204082 -0.0204082 -0.0204082 -0.0204082 -0.0204082 V -1 M 1,0 v -0.02040816 -0.02040817 -0.02040816 -0.02040816 -0.02040817 -0.0204082 -0.0204082 -0.0204082 -0.0204082 -0.0204082 -0.0204082 -0.0204082 -0.0204082 -0.0204082 -0.0204082 -0.0204082 -0.0204082 -0.0204082 -0.0204082 -0.0204082 -0.0204082 -0.0204082 -0.0204082 -0.0204082 -0.0204082 -0.0204082 -0.0204082 -0.0204082 -0.0204082 -0.0204082 -0.0204082 -0.0204082 -0.0204082 -0.0204082 -0.0204082 -0.0204082 -0.0204082 -0.0204082 -0.0204082 -0.0204082 -0.0204082 -0.0204082 -0.0204082 -0.0204082 -0.0204082 -0.0204082 -0.0204082 -0.0204082 V -1"
         inkscape:connector-curvature="0" />
    </g>
  </g>
</svg>
