<?xml version="1.0" encoding="UTF-8" standalone="no"?>
<!-- Created with Inkscape (http://www.inkscape.org/) -->

<svg
   xmlns:dc="http://purl.org/dc/elements/1.1/"
   xmlns:cc="http://creativecommons.org/ns#"
   xmlns:rdf="http://www.w3.org/1999/02/22-rdf-syntax-ns#"
   xmlns:svg="http://www.w3.org/2000/svg"
   xmlns="http://www.w3.org/2000/svg"
   xmlns:sodipodi="http://sodipodi.sourceforge.net/DTD/sodipodi-0.dtd"
   xmlns:inkscape="http://www.inkscape.org/namespaces/inkscape"
   width="215.89999mm"
   height="279.39999mm"
   viewBox="0 0 8.4999832 10.999978"
   version="1.1"
   id="svg8"
   sodipodi:docname="blob.svg"
   inkscape:version="0.92.3 (2405546, 2018-03-11)">
  <defs
     id="defs2" />
  <sodipodi:namedview
     id="base"
     pagecolor="#ffffff"
     bordercolor="#666666"
     borderopacity="1.0"
     inkscape:pageopacity="0.0"
     inkscape:pageshadow="2"
     inkscape:zoom="0.1767767"
     inkscape:cx="711.64428"
     inkscape:cy="334.5634"
     inkscape:document-units="mm"
     inkscape:current-layer="layer1"
     showgrid="false"
     inkscape:window-width="1366"
     inkscape:window-height="713"
     inkscape:window-x="0"
     inkscape:window-y="27"
     inkscape:window-maximized="1"
     units="mm"
     width="7.5in"
     objecttolerance="16">
    <inkscape:grid
       type="xygrid"
       id="grid821" />
  </sodipodi:namedview>
  <metadata
     id="metadata5">
    <rdf:RDF>
      <cc:Work
         rdf:about="">
        <dc:format>image/svg+xml</dc:format>
        <dc:type
           rdf:resource="http://purl.org/dc/dcmitype/StillImage" />
        <dc:title />
      </cc:Work>
    </rdf:RDF>
  </metadata>
  <g
     inkscape:label="Layer 1"
     inkscape:groupmode="layer"
     id="layer1">
    <path
       style="fill:#0000ff;fill-opacity:0.99607843;stroke:none;stroke-width:0.39370018;stroke-linejoin:round;stroke-miterlimit:4;stroke-dasharray:none;stroke-opacity:1"
       id="path819"
       r="13.406666"
       cy="0"
       cx="0" />
    <path
       style="fill:#ff0000;fill-opacity:0.99607843;stroke:none;stroke-width:0.39370018;stroke-linejoin:round;stroke-miterlimit:4;stroke-dasharray:none;stroke-opacity:1"
       id="path823"
       r="3.937"
       cy="0"
       cx="0" />
    <rect
       style="fill:#ff00ff;fill-opacity:0.99607843;stroke:none;stroke-width:0.39370018;stroke-linejoin:round;stroke-miterlimit:4;stroke-dasharray:none;stroke-opacity:1"
       id="rect825"
       width="7.0866003"
       height="4.40944"
       x="-5.9767313"
       y="-2.2804003" />
    <rect
       style="fill:#ffffff;fill-opacity:0.99607843;stroke:none;stroke-width:0.39370018;stroke-linejoin:round;stroke-miterlimit:4;stroke-dasharray:none;stroke-opacity:1"
       id="rect827"
       width="8.4999828"
       height="10.999978"
       x="3.7880664"
       y="-5.5558257" />
    <path
       sodipodi:type="spiral"
       style="fill:none;fill-rule:evenodd;stroke:#000000;stroke-width:0.01041665"
       id="path855"
       sodipodi:cx="7.5761318"
       sodipodi:cy="-0.53257376"
       sodipodi:expansion="1"
       sodipodi:revolution="9"
       sodipodi:radius="2.9606688"
       sodipodi:argument="-17.537531"
       sodipodi:t0="0"
       d="m 7.5761318,-0.53257376 c 0.012662,0.0478336 -0.058232,0.0406673 -0.079503,0.0210448 -0.057643,-0.0531758 -0.018994,-0.14413814 0.037413,-0.18005004 0.1008984,-0.064238 0.2304915,-0.003291 0.2805975,0.0958707 0.073533,0.14552357 -0.012211,0.31825726 -0.1543284,0.38114493 -0.1894208,0.0838194 -0.406556,-0.0275862 -0.4816924,-0.2127862 -0.094551,-0.23305531 0.042889,-0.49511649 0.271244,-0.58223985 0.2765689,-0.105518 0.5838259,0.0581471 0.6827872,0.32970175 0.1166226,0.32001776 -0.073378,0.67262847 -0.3881594,0.78333471 C 7.3810626,0.2312618 6.9829974,0.01485716 6.8606084,-0.34317018 6.7215423,-0.74998361 6.9643975,-1.1935716 7.3656834,-1.3275998 7.8158655,-1.4779591 8.3050248,-1.2086207 8.4506605,-0.76406702 8.6123436,-0.27052818 8.3164983,0.26423826 7.8286699,0.42145747 7.2917831,0.59448743 6.7113825,0.27211762 6.542598,-0.25899082 6.3582034,-0.83921909 6.7071115,-1.4652749 7.281504,-1.6456102 7.9050686,-1.8413834 8.5767963,-1.4659264 8.7686709,-0.84824638 8.975834,-0.18134953 8.5738193,0.53606346 7.9128493,0.73946788 7.2026234,0.95803013 6.4395141,0.52945075 6.2245876,-0.17481145 5.9946187,-0.92836374 6.4497685,-1.7371784 7.1973247,-1.9636206 7.9942012,-2.2050024 8.8487288,-1.7232774 9.0866813,-0.93242575 9.3394814,-0.09222686 8.831177,0.80802028 7.9970287,1.0574783 7.1135089,1.3217012 6.1675368,0.78681409 5.9065772,-0.09063208 5.6309276,-1.0174714 6.1924004,-2.0091732 7.1131453,-2.281631 8.083303,-2.5687106 9.1207386,-1.9806496 9.4046917,-1.0166051 9.7032042,-0.00312993 9.0885527,1.0800431 8.081208,1.3754887 7.0244162,1.6854368 5.8955027,1.0441928 5.5885668,-0.00645272 5.2671809,-1.1065604 5.935019,-2.2812172 7.0289659,-2.5996414 8.1723888,-2.932467 9.3927914,-2.2380332 9.7227021,-1.1007845 10.066969,0.08595304 9.3459384,1.3521036 8.1653874,1.6934991 6.9353357,2.0492094 5.6234353,1.3015804 5.2705563,0.07772665 4.9034015,-1.1956387 5.6776298,-2.5532908 6.9447866,-2.9176518 8.2614651,-3.2962525 9.6648706,-2.4954239 10.040713,-1.1849639 10.43076,0.17502759 9.6033304,1.6241878 8.2495668,2.0115095 6.8462628,2.4130052 5.3513466,1.5589735 4.9525459,0.16190602 4.5396013,-1.2847102 5.4202356,-2.8253836 6.8606072,-3.2356623 8.3505354,-3.6600567 9.9369671,-2.7528191 10.358723,-1.2691432 10.794568,0.26409668 9.8607264,1.8962877 8.3337461,2.3295199" />
  </g>
</svg>
