<?xml version="1.0" encoding="UTF-8" standalone="no"?>
<!-- Created with Inkscape (http://www.inkscape.org/) -->

<svg
   xmlns:dc="http://purl.org/dc/elements/1.1/"
   xmlns:cc="http://creativecommons.org/ns#"
   xmlns:rdf="http://www.w3.org/1999/02/22-rdf-syntax-ns#"
   xmlns:svg="http://www.w3.org/2000/svg"
   xmlns="http://www.w3.org/2000/svg"
   xmlns:sodipodi="http://sodipodi.sourceforge.net/DTD/sodipodi-0.dtd"
   xmlns:inkscape="http://www.inkscape.org/namespaces/inkscape"
   width="215.89999mm"
   height="279.39999mm"
   viewBox="0 0 8.4999832 10.999978"
   version="1.1"
   id="svg8"
   sodipodi:docname="spiralbig.svg"
   inkscape:version="0.92.3 (2405546, 2018-03-11)">
  <defs
     id="defs2" />
  <sodipodi:namedview
     id="base"
     pagecolor="#ffffff"
     bordercolor="#666666"
     borderopacity="1.0"
     inkscape:pageopacity="0.0"
     inkscape:pageshadow="2"
     inkscape:zoom="0.44305983"
     inkscape:cx="703.83168"
     inkscape:cy="904.13438"
     inkscape:document-units="mm"
     inkscape:current-layer="layer1"
     showgrid="false"
     inkscape:window-width="1366"
     inkscape:window-height="713"
     inkscape:window-x="0"
     inkscape:window-y="27"
     inkscape:window-maximized="1"
     units="mm"
     width="7.5in"
     objecttolerance="16">
    <inkscape:grid
       type="xygrid"
       id="grid821" />
  </sodipodi:namedview>
  <metadata
     id="metadata5">
    <rdf:RDF>
      <cc:Work
         rdf:about="">
        <dc:format>image/svg+xml</dc:format>
        <dc:type
           rdf:resource="http://purl.org/dc/dcmitype/StillImage" />
        <dc:title></dc:title>
      </cc:Work>
    </rdf:RDF>
  </metadata>
  <g
     inkscape:label="Layer 1"
     inkscape:groupmode="layer"
     id="layer1"
     style="opacity:0.95000001">
    <path
       style="fill:#0000ff;fill-opacity:0.99607843;stroke:none;stroke-width:0.39370018;stroke-linejoin:round;stroke-miterlimit:4;stroke-dasharray:none;stroke-opacity:1"
       id="path819"
       r="13.406666"
       cy="0"
       cx="0" />
    <path
       style="fill:#ff0000;fill-opacity:0.99607843;stroke:none;stroke-width:0.39370018;stroke-linejoin:round;stroke-miterlimit:4;stroke-dasharray:none;stroke-opacity:1"
       id="path823"
       r="3.937"
       cy="0"
       cx="0" />
    <rect
       style="fill:#ff00ff;fill-opacity:0.99607843;stroke:none;stroke-width:0.39370018;stroke-linejoin:round;stroke-miterlimit:4;stroke-dasharray:none;stroke-opacity:1"
       id="rect825"
       width="7.0866003"
       height="4.40944"
       x="-5.9767313"
       y="-2.2804003" />
    <rect
       style="fill:#ffffff;fill-opacity:0.99607843;stroke:#000000;stroke-width:0.03937;stroke-linejoin:round;stroke-miterlimit:4;stroke-dasharray:none;stroke-opacity:1"
       id="rect859"
       width="8.4999838"
       height="9.2283278"
       x="4.547235"
       y="-4.6339998" />
    <path
       sodipodi:type="spiral"
       style="fill:none;fill-rule:evenodd;stroke:#000000;stroke-width:0.00545371"
       id="path1395"
       sodipodi:cx="8.2757692"
       sodipodi:cy="0.043992419"
       sodipodi:expansion="1"
       sodipodi:revolution="20"
       sodipodi:radius="1.7033503"
       sodipodi:argument="-18.497248"
       sodipodi:t0="0"
       d="m 8.2757692,0.04399242 c 0.012024,0.0044204 -2.66e-5,0.01838854 -0.00735,0.0199841 -0.019838,0.0043239 -0.033385,-0.01738313 -0.032621,-0.03467827 0.00137,-0.03093696 0.03354,-0.04936318 0.06201,-0.04525814 0.04178,0.00602429 0.065671,0.04986392 0.057895,0.08934065 C 8.345342,0.12599704 8.2894653,0.1554908 8.2390338,0.14391294 8.1755709,0.12934338 8.1404181,0.06127281 8.1558646,-9.0096706e-5 8.1745724,-0.0744088 8.2549173,-0.11524957 8.3271988,-0.09589631 8.4123801,-0.07308917 8.458926,0.01957694 8.4356421,0.10276911 8.4087599,0.19881775 8.303743,0.2510798 8.2096455,0.22384936 8.1027259,0.1929084 8.04474,0.0755207 8.0759282,-0.02947844 8.1109166,-0.14727161 8.2406892,-0.21098671 8.3565872,-0.17583273 8.485256,-0.13680516 8.5547044,0.00536262 8.5155785,0.13215745 8.4725179,0.2717034 8.3179472,0.34688824 8.1802571,0.30378578 8.0298327,0.25669696 7.9489091,0.08971718 7.9959918,-0.05886678 8.0471051,-0.22017057 8.2264987,-0.30683505 8.3859755,-0.25576915 8.5581595,-0.2006343 8.6505664,-0.00882314 8.5955149,0.16154579 8.536361,0.34461073 8.3321291,0.4427612 8.1508688,0.3837222 7.9569224,0.32055115 7.8530272,0.10389598 7.9160554,-0.08825513 7.9832418,-0.29308348 8.2123225,-0.40272429 8.4153639,-0.33570557 8.6310746,-0.26450503 8.7464618,-0.02299715 8.6754513,0.19093414 8.6002379,0.41752754 8.3463012,0.53866177 8.1214804,0.46365861 7.884004,0.38443339 7.7571222,0.11806654 7.8361189,-0.11764347 7.9193551,-0.36600313 8.1981533,-0.49863305 8.4447522,-0.41564198 8.7039954,-0.3283956 8.8423738,-0.03716516 8.7553877,0.22032248 8.6641318,0.49044932 8.3604682,0.63457666 8.0920921,0.54359503 7.8110814,0.44833018 7.6612048,0.13223261 7.7561825,-0.14703182 7.8554558,-0.43892654 8.183988,-0.59455264 8.4741406,-0.4955784 8.7769194,-0.39229718 8.9382953,-0.05132971 8.8353242,0.24971082 8.7280354,0.56337401 8.3746321,0.73049993 8.0627037,0.62353145 7.7381562,0.51223551 7.56528,0.14639594 7.6762461,-0.17642016 7.7915489,-0.51185225 8.1698252,-0.69047886 8.5035289,-0.57551482 8.8498456,-0.45620549 9.0342228,-0.06549205 8.9152606,0.27909917 8.791945,0.63630054 8.388794,0.82642853 8.0333154,0.70346787 7.6652293,0.57614625 7.4693504,0.16055748 7.5963097,-0.2058085 7.7276371,-0.58477947 8.155664,-0.78640942 8.5329172,-0.65545124 8.9227731,-0.52011823 9.1301542,-0.07965293 8.995197,0.30848751 8.8558586,0.70922834 8.4029546,0.92236073 8.0039271,0.78340428 7.5923012,0.64006065 7.3734174,0.1747178 7.5163733,-0.23519685 7.663722,-0.65770774 8.1415039,-0.882343 8.5623056,-0.73538766 8.9957016,-0.58403403 9.2260884,-0.09381277 9.0751334,0.33787586 8.919775,0.78215701 8.4171143,1.0182955 7.9745387,0.8633407 7.5193724,0.70397764 7.2774822,0.18887723 7.4364368,-0.26458519 7.5998045,-0.73063676 8.1273447,-0.97827874 8.5916939,-0.81532407 9.0686308,-0.64795204 9.3220246,-0.10797185 9.1550698,0.3672642 8.9836935,0.85508633 8.4312732,1.1142321 7.9451504,0.94327712 7.4464429,0.76789652 7.1815452,0.20303601 7.3565004,-0.29397353 7.5358852,-0.80356635 8.113186,-1.0742161 8.6210823,-0.89526049 9.1415605,-0.71187168 9.4179623,-0.12213037 9.2350062,0.39665254 9.0476135,0.92801614 8.4454316,1.2101701 7.915762,1.0232135 7.373513,0.83181683 7.0856069,0.21719429 7.276564,-0.32336188 7.4719646,-0.87649636 8.0990279,-1.1701547 8.6504706,-0.97519691 c 0.56402,0.19940433 0.8634305,0.83890847 0.6644721,1.4012378 C 9.1115346,1.0009463 8.4595896,1.3061092 7.8863737,1.10315 7.3005827,0.89573825 6.9896675,0.23135218 7.1966276,-0.35275022 7.4080429,-0.9494267 8.0848701,-1.2660942 8.679859,-1.0551333 9.287421,-0.83971446 9.6098409,-0.15044616 9.3948791,0.45542923 9.1754567,1.0738768 8.4737472,1.4020491 7.8569853,1.1830864 7.2276522,0.95966054 6.8937274,0.24550976 7.1166912,-0.38213856 7.3441204,-1.0223573 8.0707125,-1.3620346 8.7092473,-1.1350697 9.3603517,-0.90363712 9.7057814,-0.16460361 9.4748155,0.48481757 9.2393795,1.1468075 8.4879046,1.4979898 7.827597,1.2630228 7.1547214,1.0235835 6.7977866,0.25966708 7.0367548,-0.41152691 7.2801973,-1.0952881 8.0565553,-1.4579755 8.7386356,-1.2150062 9.4332825,-0.96756042 9.8017225,-0.17876083 9.5547519,0.51420592 9.303303,1.2197385 8.5020618,1.593931 7.7982086,1.3429592 7.0817904,1.0875071 6.7018453,0.27382421 6.9568183,-0.44091525 7.2162736,-1.1682191 8.0423982,-1.5539169 8.768024,-1.2949426 9.5062136,-1.0314842 9.897664,-0.19291787 9.6346883,0.54359426 9.3672269,1.2926695 8.5162188,1.6898727 7.7688203,1.4228956 7.0088593,1.1514311 6.6059035,0.28798116 6.8768819,-0.4703036 7.1523494,-1.2411503 8.0282413,-1.6498588 8.7974123,-1.374879 9.5791448,-1.0954085 9.993606,-0.20707474 9.7146248,0.5729826 9.4311512,1.3656008 8.5303756,1.7858147 7.739432,1.502832 6.9359281,1.2153556 6.5099614,0.30213797 6.7969455,-0.49969194 7.0884249,-1.3140816 8.0140845,-1.745801 8.8268007,-1.4548154 9.6520761,-1.1593331 10.089548,-0.22123149 9.7945612,0.60237095 9.4950759,1.4385321 8.5445323,1.8817571 7.7100436,1.5827685 6.8629967,1.2792803 6.4140189,0.31629466 6.7170091,-0.52908028 7.0245001,-1.387013 7.9999278,-1.8417436 8.856189,-1.5347518 c 0.8688185,0.3114938 1.329302,1.29936368 1.0183086,2.16651109"
       transform="matrix(1.909994,0,0,1.9100303,-7.0842572,-0.1147319)" />
  </g>
</svg>
